<svg xmlns="http://www.w3.org/2000/svg" width="481.367" height="481.367" viewBox="0 0 481.367 481.367"><path d="M476.762 230.642l-32.414-26.406c-2.23-1.816-5.02-2.81-7.896-2.81H44.915c-2.876 0-5.665.993-7.895 2.81L4.605 230.642C1.69 233.016 0 236.575 0 240.332v.7c0 3.76 1.69 7.317 4.605 9.692l32.415 26.404c2.23 1.816 5.02 2.81 7.895 2.81H436.45c2.878 0 5.667-.992 7.897-2.81l32.414-26.404c2.915-2.375 4.606-5.934 4.606-9.69v-.7c0-3.76-1.69-7.318-4.604-9.692zm-44.756 24.297H49.363l-17.5-14.257 17.5-14.256h382.643l17.5 14.256-17.5 14.256zM56.373 177.587h368.62c6.903 0 12.5-5.597 12.5-12.5V153.28c0-61.757-50.24-112-111.997-112H155.872c-61.756 0-111.998 50.243-111.998 112v11.807c0 6.904 5.596 12.5 12.5 12.5zm99.5-111.305h169.623c47.74 0 86.62 38.652 86.996 86.306H68.876c.374-47.654 39.256-86.306 86.996-86.306zM424.994 303.78H56.374c-6.904 0-12.5 5.596-12.5 12.5v11.806c0 61.758 50.24 112 111.997 112h169.626c61.756 0 111.998-50.242 111.998-112V316.28c0-6.905-5.596-12.5-12.5-12.5zm-99.498 111.304H155.872c-47.74 0-86.62-38.652-86.995-86.306h343.615c-.375 47.654-39.256 86.306-86.996 86.306z"/><circle cx="130.667" cy="102.978" r="11.991"/><circle cx="190.62" cy="137.105" r="11.991"/><circle cx="202.611" cy="83.609" r="11.99"/><circle cx="267.484" cy="102.978" r="11.991"/><circle cx="327.438" cy="137.105" r="11.991"/><circle cx="339.428" cy="83.609" r="11.99"/></svg>