<svg xmlns="http://www.w3.org/2000/svg" viewBox="0 0 100 125" enable-background="new 0 0 100 100"><path d="M49.975 14.49c-9.086 0-18.173 3.496-25.107 10.43-13.84 13.84-13.812 36.32.028 50.188 13.867 13.868 36.32 13.868 50.187 0S88.98 38.76 75.11 24.92c-6.933-6.934-16.047-10.43-25.135-10.43zm0 1.595c8.696 0 17.39 3.3 24.017 9.926 13.253 13.254 13.225 34.727-.027 48.008-13.253 13.253-34.698 13.253-47.95 0-13.252-13.28-13.28-34.754-.028-48.007 6.626-6.626 15.293-9.925 23.988-9.925zM34.85 34.12c-.615.055-.922.95-.475 1.37L48.885 50l-14.51 14.51c-.335.28-.392.868-.056 1.176.307.308.894.28 1.173-.057l14.482-14.54 14.54 14.54c.28.335.84.363 1.174.056.307-.308.28-.895-.085-1.175L51.122 50l14.482-14.51c.476-.448.084-1.372-.56-1.372-.195.028-.39.112-.53.252l-14.54 14.51-14.48-14.51c-.168-.14-.364-.25-.588-.25h-.056z"/></svg>