<svg xmlns="http://www.w3.org/2000/svg" width="612" height="612" viewBox="0 0 612 612" style="fill: #fff;"><path d="M558.3 520.6H53.7C24.1 520.6 0 496.5 0 466.9V145.1c0-16 4.5-26.2 13.5-30.3 19.1-8.9 49.5 15.7 53.9 19.3l238.3 165.3 211.6-147.1c2.4-1.7 5.8-1.1 7.5 1.4 1.7 2.4 1.1 5.8-1.4 7.5L308.8 310.4c-1.8 1.3-4.3 1.3-6.2 0L61 142.9c-.1-.1-.3-.2-.4-.3-11.1-9.5-32.6-22.6-42.5-18-6 2.8-7.3 12.7-7.3 20.5v321.7c0 23.7 19.3 42.9 42.9 42.9h504.6c23.7 0 42.9-19.3 42.9-42.9V145.1c0-23.7-19.3-42.9-42.9-42.9H124.7c-3 0-5.4-2.4-5.4-5.4s2.4-5.4 5.4-5.4h433.6c29.6 0 53.7 24.1 53.7 53.7v321.7c0 29.7-24.1 53.8-53.7 53.8z"/></svg>
