<svg width="64" xmlns="http://www.w3.org/2000/svg" height="64" viewBox="0 0 64 64"><g fill="#1D1D1B"><circle cx="33.301" cy="12.434" r="2.25"/><path d="M32 0C14.355 0 0 14.355 0 32s14.355 32 32 32 32-14.355 32-32S49.645 0 32 0zm0 60C16.56 60 4 47.44 4 32S16.56 4 32 4s28 12.56 28 28-12.56 28-28 28zM36.69 47.554c-4.175 4.728-7.224 3.19-7.31 3.146-.095-.056-.194-.104-.296-.144-.27-.105-.67-.337-1.016-1.126-2.43-5.55 3.11-22.257 5.447-28.227.258-.657.15-1.4-.283-1.96-.436-.556-1.137-.85-1.83-.754l-4.07.518c-1.096.14-1.87 1.142-1.732 2.237.14 1.095 1.162 1.87 2.236 1.73l.793-.1c-2.382 6.69-7.083 21.63-4.226 28.157.67 1.53 1.746 2.636 3.117 3.205.448.225 1.647.732 3.33.732 2.28 0 5.448-.935 8.837-4.77.732-.83.654-2.093-.174-2.824-.825-.728-2.09-.65-2.822.178z"/></g></svg>