<svg style="fill: #fff;" xmlns="http://www.w3.org/2000/svg" viewBox="0 0 100 125" enable-background="new 0 0 100 100"><path d="M31.7 79.1c-2.9-1.4-5.4 2.9-2.5 4.4 12.6 6.1 28.3 5.4 40.2-1.9 21.3-13 23.4-44.9 5-61.2-8.5-7.5-20.4-10.8-31.7-9.3-12.9 1.8-23.3 9.9-29.5 21.2-.1.2-.2.4-.2.6-.3.8-.1 1.7.6 2.4l24.8 24.8c.7.7 1.8.7 1.8.7.6 0 1.2-.2 1.7-.7l15.4-15.4v10.4c0 3.2 5 3.2 5 0V38.5c0-.8-.3-1.4-.7-1.8-.4-.4-1-.7-1.8-.7H43.5c-3.2 0-3.2 5 0 5h10.4L40.1 54.8C33 47.6 25.7 40.4 18.5 33.2c7.1-11.7 19.3-18.6 33.2-17.3 13.4 1.3 24.9 10.3 29 23.2 3.8 12.1-.3 27-9.9 35.4-10.3 9-27 10.6-39.1 4.6z"/></svg>
