<svg xmlns="http://www.w3.org/2000/svg" viewBox="0 0 100 125" enable-background="new 0 0 100 100"><path d="M64.1 40.9c.4.4.7 1 .7 1.8V59c0 3.2-5 3.2-5 0V48.6C50.2 58.3 40.4 68 30.7 77.7c-.5.5-1 .7-1.4.7-.7.1-1.4-.1-2.1-.7-9.5-9.9-13.6-23.8-10.2-37.2C23.3 16 52.2 3.8 74.2 16.4c22.2 12.8 25.5 43.2 8.1 61.3-2.2 2.3-5.8-1.2-3.5-3.5 9.6-9.9 12.7-24.6 7.2-37.4-5.3-12.4-17.8-20.5-31.2-20.5-13.4 0-25.9 8.2-31.2 20.5-5.2 12-2.7 25.7 5.5 35.5l27.1-27.1H45.8c-3.2 0-3.2-5 0-5h16.6c.7 0 1.3.3 1.7.7z"/></svg>
