<svg xmlns="http://www.w3.org/2000/svg" viewBox="0 0 100 125" enable-background="new 0 0 100 100"><path fill="#fff" d="M64.672 50.007c0 .966-.783 1.75-1.75 1.75H51.75V62.93c0 .967-.784 1.75-1.75 1.75s-1.75-.783-1.75-1.75V51.757H37.076c-.966 0-1.75-.784-1.75-1.75s.784-1.75 1.75-1.75H48.25V37.084c0-.966.784-1.75 1.75-1.75s1.75.784 1.75 1.75v11.173h11.172c.967 0 1.75.784 1.75 1.75zm15.078 0c0 7.946-3.095 15.417-8.714 21.036-5.8 5.8-13.418 8.7-21.036 8.7s-15.236-2.9-21.036-8.7c-5.62-5.62-8.714-13.09-8.714-21.036 0-7.947 3.095-15.417 8.714-21.036 5.62-5.618 13.09-8.713 21.036-8.713s15.417 3.095 21.036 8.714c5.62 5.62 8.714 13.09 8.714 21.037zm-3.5 0c0-7.012-2.73-13.604-7.688-18.562S57.012 23.757 50 23.757s-13.604 2.73-18.562 7.688-7.688 11.55-7.688 18.562 2.73 13.604 7.688 18.562c10.236 10.233 26.89 10.234 37.123 0 4.96-4.96 7.69-11.55 7.69-18.563z"/></svg>