<svg xmlns:dc="http://purl.org/dc/elements/1.1/" xmlns:cc="http://creativecommons.org/ns#" xmlns:rdf="http://www.w3.org/1999/02/22-rdf-syntax-ns#" xmlns:svg="http://www.w3.org/2000/svg" xmlns="http://www.w3.org/2000/svg" xmlns:sodipodi="http://sodipodi.sourceforge.net/DTD/sodipodi-0.dtd" xmlns:inkscape="http://www.inkscape.org/namespaces/inkscape" version="1.1" x="0px" y="0px" viewBox="0 0 100 125"><title>Info icon</title><g transform="translate(0,-952.36218)"><path style="" d="m 385.71429,443.79074 a 134.28572,148.57143 0 1 1 -268.57144,0 134.28572,148.57143 0 1 1 268.57144,0 z" transform="matrix(0.33510637,0,0,0.30288462,-34.255316,867.94479)" fill="#231f20" fill-opacity="1" stroke-width="0"/><g style="" fill="#ffffff" fill-opacity="1" stroke="none"><path d="m 55.734509,972.53004 c 1.742822,6e-5 3.211588,0.60443 4.406301,1.81312 1.194666,1.2088 1.792011,2.67054 1.792036,4.38522 -2.5e-5,1.71478 -0.604398,3.17652 -1.813119,4.38522 -1.208768,1.20879 -2.670506,1.81316 -4.385218,1.81312 -1.68664,4e-5 -3.134323,-0.60433 -4.343052,-1.81312 -1.20876,-1.2087 -1.813133,-2.67044 -1.813119,-4.38522 -1.4e-5,-1.71468 0.597331,-3.17642 1.792036,-4.38522 1.194675,-1.20869 2.649385,-1.81306 4.364135,-1.81312 z m 2.614265,19.39616 -8.64394,29.9797 c -0.477889,1.7148 -0.716827,2.8392 -0.716814,3.3733 -1.3e-5,0.3092 0.126484,0.5973 0.37949,0.8643 0.25298,0.2671 0.520028,0.4006 0.801145,0.4006 0.477863,0 0.955738,-0.2108 1.433629,-0.6325 1.264951,-1.04 2.782909,-2.9234 4.553881,-5.6501 l 1.433629,0.8433 c -4.244683,7.393 -8.756394,11.0895 -13.535145,11.0895 -1.82718,0 -3.28189,-0.513 -4.364135,-1.539 -1.082251,-1.0261 -1.623376,-2.3262 -1.623374,-3.9003 -2e-6,-1.0401 0.238936,-2.3613 0.716815,-3.9636 l 5.861012,-20.1551 c 0.562199,-1.9396 0.843302,-3.40137 0.843311,-4.38527 -9e-6,-0.61839 -0.267057,-1.16654 -0.801145,-1.64445 -0.534105,-0.47785 -1.264974,-0.71678 -2.192609,-0.71682 -0.421662,4e-5 -0.927648,0.0141 -1.51796,0.0422 l 0.548152,-1.68663 14.294124,-2.3191 z" style="" fill="#ffffff"/></g></g></svg>
