<svg xmlns="http://www.w3.org/2000/svg" viewBox="0 0 100 125"><title>Info icon</title><path d="M385.714 443.79a134.286 148.57 0 1 1-268.57 0 134.286 148.57 0 1 1 268.57 0z" transform="matrix(.335 0 0 .303 -34.255 -84.417)" fill="#231f20"/><path d="M55.735 20.168c1.742 0 3.21.604 4.406 1.813 1.195 1.21 1.793 2.672 1.793 4.386 0 1.715-.605 3.177-1.813 4.385-1.21 1.21-2.67 1.815-4.385 1.815-1.687 0-3.135-.605-4.344-1.814-1.207-1.207-1.812-2.67-1.812-4.384 0-1.714.598-3.176 1.792-4.385 1.195-1.208 2.65-1.812 4.365-1.812zm2.614 971.758l-8.645 29.98c-.478 1.715-.717 2.84-.717 3.373 0 .308.127.596.38.863.252.268.52.4.8.4.48 0 .956-.21 1.434-.63 1.265-1.04 2.783-2.925 4.554-5.652l1.434.845c-4.245 7.393-8.757 11.09-13.535 11.09-1.828 0-3.282-.514-4.364-1.54-1.082-1.026-1.623-2.326-1.623-3.9 0-1.04.24-2.36.717-3.964l5.86-20.154c.563-1.94.844-3.4.844-4.385 0-.617-.267-1.166-.8-1.643-.535-.478-1.266-.717-2.193-.717-.422 0-.928.014-1.518.042l.548-1.687 14.294-2.32z" fill="#fff"/></svg>