<?xml version="1.0" encoding="iso-8859-1"?>
<!-- Generator: Adobe Illustrator 16.0.0, SVG Export Plug-In . SVG Version: 6.00 Build 0)  -->
<!DOCTYPE svg PUBLIC "-//W3C//DTD SVG 1.1//EN" "http://www.w3.org/Graphics/SVG/1.1/DTD/svg11.dtd">
<svg version="1.1" id="Capa_1" xmlns="http://www.w3.org/2000/svg" xmlns:xlink="http://www.w3.org/1999/xlink" x="0px" y="0px"
	 width="481.367px" height="481.367px" viewBox="0 0 481.367 481.367" style="enable-background:new 0 0 481.367 481.367;"
	 xml:space="preserve">
<g>
	<g>
		<path d="M476.762,230.642l-32.414-26.406c-2.23-1.816-5.02-2.809-7.896-2.809H44.915c-2.876,0-5.665,0.992-7.895,2.809
			L4.605,230.642C1.691,233.016,0,236.575,0,240.333v0.7c0,3.759,1.691,7.316,4.605,9.691l32.415,26.404
			c2.229,1.816,5.019,2.809,7.895,2.809h391.536c2.877,0,5.666-0.991,7.896-2.809l32.414-26.404
			c2.914-2.375,4.605-5.934,4.605-9.691v-0.7C481.367,236.575,479.676,233.016,476.762,230.642z M432.006,254.939H49.363
			l-17.5-14.256l17.5-14.256h382.643l17.5,14.256L432.006,254.939z"/>
		<path d="M56.373,177.587h368.621c6.902,0,12.5-5.597,12.5-12.5v-11.808c0-61.756-50.242-111.998-111.998-111.998H155.872
			c-61.756,0-111.998,50.242-111.998,111.998v11.808C43.873,171.991,49.47,177.587,56.373,177.587z M155.872,66.282h169.624
			c47.74,0,86.621,38.652,86.996,86.306H68.876C69.25,104.934,108.132,66.282,155.872,66.282z"/>
		<path d="M424.994,303.779H56.373c-6.903,0-12.5,5.597-12.5,12.5v11.807c0,61.758,50.242,112,111.998,112h169.625
			c61.756,0,111.998-50.242,111.998-112v-11.807C437.494,309.375,431.898,303.779,424.994,303.779z M325.496,415.084H155.872
			c-47.739,0-86.621-38.652-86.995-86.306h343.615C412.117,376.432,373.236,415.084,325.496,415.084z"/>
		<circle cx="130.667" cy="102.978" r="11.991"/>
		<circle cx="190.62" cy="137.105" r="11.991"/>
		<circle cx="202.611" cy="83.609" r="11.99"/>
		<circle cx="267.484" cy="102.978" r="11.991"/>
		<circle cx="327.438" cy="137.105" r="11.991"/>
		<circle cx="339.428" cy="83.609" r="11.99"/>
	</g>
</g>
<g>
</g>
<g>
</g>
<g>
</g>
<g>
</g>
<g>
</g>
<g>
</g>
<g>
</g>
<g>
</g>
<g>
</g>
<g>
</g>
<g>
</g>
<g>
</g>
<g>
</g>
<g>
</g>
<g>
</g>
</svg>
