<svg xmlns="http://www.w3.org/2000/svg" xmlns:xlink="http://www.w3.org/1999/xlink" version="1.1" x="0px" y="0px" viewBox="0 0 100 125" enable-background="new 0 0 100 100" xml:space="preserve"><g><path d="M49.975,14.491c-9.086,0-18.173,3.495-25.107,10.429c-13.839,13.841-13.812,36.319,0.028,50.188   c13.867,13.868,36.319,13.868,50.187,0s13.896-36.347,0.028-50.188C68.177,17.986,59.063,14.491,49.975,14.491L49.975,14.491z    M49.975,16.085c8.696,0,17.391,3.299,24.017,9.926c13.253,13.253,13.225,34.726-0.027,48.007   c-13.253,13.253-34.698,13.253-47.95,0c-13.252-13.281-13.28-34.754-0.028-48.007C32.613,19.384,41.28,16.085,49.975,16.085   L49.975,16.085z M34.85,34.119c-0.615,0.056-0.922,0.951-0.475,1.371L48.885,50L34.375,64.511c-0.335,0.28-0.392,0.867-0.056,1.175   c0.308,0.308,0.895,0.279,1.174-0.057l14.482-14.538l14.54,14.538c0.279,0.336,0.839,0.364,1.174,0.057   c0.308-0.308,0.28-0.895-0.084-1.175L51.122,50l14.482-14.511c0.476-0.447,0.084-1.371-0.559-1.371   c-0.196,0.028-0.392,0.112-0.531,0.252l-14.54,14.511L35.493,34.371c-0.167-0.14-0.363-0.252-0.587-0.252   C34.877,34.119,34.877,34.119,34.85,34.119L34.85,34.119z"/></g></svg>
