<?xml version='1.0' encoding='utf-8'?>
<!DOCTYPE svg PUBLIC '-//W3C//DTD SVG 1.1//EN' 'http://www.w3.org/Graphics/SVG/1.1/DTD/svg11.dtd'>
<svg width="64" version="1.1" xmlns="http://www.w3.org/2000/svg" height="64" viewBox="0 0 64 64" xmlns:xlink="http://www.w3.org/1999/xlink" enable-background="new 0 0 64 64">
  <g>
    <g fill="#1D1D1B">
      <circle cx="33.301" cy="12.434" r="2.25"/>
      <path d="M32,0C14.355,0,0,14.355,0,32s14.355,32,32,32s32-14.355,32-32S49.645,0,32,0z M32,60    C16.561,60,4,47.439,4,32S16.561,4,32,4s28,12.561,28,28S47.439,60,32,60z"/>
      <path d="m36.691,47.554c-4.176,4.728-7.225,3.191-7.312,3.146-0.094-0.056-0.193-0.104-0.295-0.144-0.27-0.105-0.67-0.337-1.016-1.126-2.43-5.55 3.109-22.257 5.447-28.227 0.258-0.657 0.15-1.401-0.283-1.959-0.436-0.557-1.137-0.85-1.83-0.755l-4.07,.519c-1.096,0.14-1.871,1.142-1.732,2.237 0.141,1.095 1.162,1.869 2.236,1.731l.793-.102c-2.381,6.691-7.082,21.63-4.225,28.158 0.67,1.529 1.746,2.636 3.117,3.205 0.447,0.225 1.646,0.732 3.328,0.732 2.281,0 5.449-0.934 8.838-4.77 0.732-0.828 0.654-2.092-0.174-2.823-0.825-0.728-2.089-0.65-2.822,0.178z"/>
    </g>
  </g>
</svg>
