<svg xmlns="http://www.w3.org/2000/svg" xmlns:xlink="http://www.w3.org/1999/xlink" version="1.1" x="0px" y="0px" viewBox="0 0 100 125" enable-background="new 0 0 100 100" xml:space="preserve"><g><g><g><g><path d="M64.1,40.9c0.4,0.4,0.7,1,0.7,1.8c0,5.4,0,10.9,0,16.3c0,3.2-5,3.2-5,0c0-3.5,0-7,0-10.4C50.2,58.3,40.4,68,30.7,77.7      c-0.5,0.5-1,0.7-1.4,0.7c0,0,0,0,0,0c-0.7,0.1-1.4-0.1-2.1-0.7C17.7,67.8,13.6,53.9,17,40.5C23.3,16,52.2,3.8,74.2,16.4      c22.2,12.8,25.5,43.2,8.1,61.3c-2.2,2.3-5.8-1.2-3.5-3.5c9.6-9.9,12.7-24.6,7.2-37.4c-5.3-12.4-17.8-20.5-31.2-20.5      c-13.4,0-25.9,8.2-31.2,20.5c-5.2,12-2.7,25.7,5.5,35.5c9-9,18.1-18.1,27.1-27.1c-3.5,0-7,0-10.4,0c-3.2,0-3.2-5,0-5      c5.5,0,11.1,0,16.6,0C63.1,40.2,63.7,40.5,64.1,40.9z"/></g></g></g></g></svg>
