<svg xmlns="http://www.w3.org/2000/svg" xmlns:xlink="http://www.w3.org/1999/xlink" version="1.1" x="0px" y="0px" viewBox="0 0 100 125" enable-background="new 0 0 100 100" xml:space="preserve"><g><g><g><g><g><g><path d="M31.7,79.1c-2.9-1.4-5.4,2.9-2.5,4.4c12.6,6.1,28.3,5.4,40.2-1.9c21.3-13,23.4-44.9,5-61.2        C65.9,12.9,54,9.6,42.7,11.1C29.8,12.9,19.4,21,13.2,32.3c-0.1,0.2-0.2,0.4-0.2,0.6c-0.3,0.8-0.1,1.7,0.6,2.4        c8.3,8.3,16.5,16.5,24.8,24.8c0.7,0.7,1.8,0.7,1.8,0.7c0.6,0,1.2-0.2,1.7-0.7c5.1-5.1,10.3-10.3,15.4-15.4c0,3.5,0,6.9,0,10.4        c0,3.2,5,3.2,5,0c0-5.5,0-11.1,0-16.6c0-0.8-0.3-1.4-0.7-1.8c-0.4-0.4-1-0.7-1.8-0.7c-5.4,0-10.9,0-16.3,0c-3.2,0-3.2,5,0,5        c3.5,0,7,0,10.4,0c-4.6,4.6-9.2,9.2-13.8,13.8C33,47.6,25.7,40.4,18.5,33.2c7.1-11.7,19.3-18.6,33.2-17.3        c13.4,1.3,24.9,10.3,29,23.2c3.8,12.1-0.3,27-9.9,35.4C60.5,83.5,43.8,85.1,31.7,79.1z"/></g></g></g></g></g></g></svg>
